<svg version="1.2" xmlns="http://www.w3.org/2000/svg" viewBox="0 107 285 73" width="285" height="73">
	<title>GATAM_WHITE-svg</title>
	<style>
		.s0 { fill: #ffffff } 
	</style>
	<g id="Laag 1">
		<g id="&lt;Group&gt;">
			<path id="&lt;Compound Path&gt;" class="s0" d="m248.1 168.9l-13.4-13.4v-42.6h-3.1l-20 22.8-20-22.8h-3v46.1h9.2v-26.7l13.8 15.3 13.9-15.3v26.7h0.1c-0.5 1.7-0.2 3.4 1 4.6l13.4 13.4c1.9 1.8 5.2 1.5 7.4-0.7 2.3-2.2 2.6-5.5 0.7-7.4zm-14.8-6.7c-1 1-2.7 1-3.8 0-1-1.1-1-2.8 0-3.8 1.1-1.1 2.8-1.1 3.8 0 1.1 1 1.1 2.7 0 3.8zm11.7 11.7c-1.1 1-2.8 1-3.8 0-1.1-1.1-1.1-2.8 0-3.8 1-1.1 2.7-1.1 3.8 0 1 1 1 2.7 0 3.8z"/>
			<path id="&lt;Compound Path&gt;" fill-rule="evenodd" class="s0" d="m90.8 112.9l-18.4 46.1h9.8l2.8-7.1h20.9l2.8 7.1h9.8l-18.4-46.1zm4.8 12.3l6.8 17.5h-13.8z"/>
			<path id="&lt;Path&gt;" class="s0" d="m108.2 112.9v8.6h15.4v37.5h9.2v-37.5h15.4v-8.6z"/>
			<path id="&lt;Compound Path&gt;" class="s0" d="m156.7 112.9l-18.4 46.1h9.8l2.8-7.1h20.9l2.7 7.1h9.9l-18.5-46.1zm4.9 12.3l6.8 17.5h-13.8z"/>
			<g id="&lt;Group&gt;">
				<path id="&lt;Compound Path&gt;" fill-rule="evenodd" class="s0" d="m51.8 122.7q6.1 0 10.8 3.7l6.1-6.7q-7.1-6.2-16.9-6.2-9.8 0-16.4 6.7-4.5 4.5-5.9 10.4h-15.6c-2.6 0-4.7 2.5-4.7 5.7 0 3.1 2.1 5.7 4.7 5.7h15.4q1.4 6.3 6.1 11 6.6 6.6 16.4 6.6 9.9 0 16.9-6.1v-21.5h-15.4v8.6h6.2v7.9q-2.7 1.9-7.7 1.9-6.2 0-10-3.8-3.8-3.7-3.8-10.2 0-6 3.8-9.8 3.8-3.8 10-3.9zm-36.8 16.3c-1.5 0-2.7-1.2-2.7-2.7 0-1.5 1.2-2.7 2.7-2.7 1.5 0 2.7 1.2 2.7 2.7 0 1.5-1.2 2.7-2.7 2.7zm16.5 0c-1.5 0-2.7-1.2-2.7-2.7 0-1.5 1.2-2.7 2.7-2.7 1.5 0 2.7 1.2 2.7 2.7 0 1.5-1.2 2.7-2.7 2.7z"/>
			</g>
		</g>
	</g>
</svg>